<svg width="35" height="35" viewBox="0 0 35 35" fill="none" xmlns="http://www.w3.org/2000/svg">
<path d="M17.5046 0C7.83459 0 0 7.83459 0 17.5046C0 27.1745 7.83459 35.0091 17.5046 35.0091C27.1745 35.0091 35.0091 27.1745 35.0091 17.5046C35.0091 7.83459 27.1654 0 17.5046 0ZM21.9241 16.007C21.8328 16.7101 21.7506 17.4041 21.6684 18.1072C21.6136 18.5547 21.4858 18.6825 21.0384 18.6825C20.3809 18.6825 19.7143 18.6825 19.0569 18.6825C18.9382 18.6825 18.8103 18.6825 18.6551 18.6825C18.6551 18.856 18.6551 18.993 18.6551 19.1208C18.6551 21.3032 18.6551 23.4947 18.6551 25.677C18.6551 26.161 18.5729 26.234 18.1072 26.2432C17.4133 26.2432 16.7193 26.2432 16.0253 26.2432C15.4774 26.2432 15.4318 26.1975 15.4318 25.6679C15.4318 23.4855 15.4409 21.294 15.4409 19.1117C15.4409 18.9838 15.4409 18.8651 15.4409 18.6825C14.893 18.6825 14.3634 18.6825 13.8247 18.6825C13.1398 18.6825 13.0577 18.5912 13.0577 17.9155C13.0577 17.2763 13.0577 16.6371 13.0577 15.9979C13.0577 15.45 13.1946 15.3222 13.7516 15.3222C14.2995 15.3222 14.8382 15.3222 15.4318 15.3222C15.4318 15.1122 15.4226 14.9296 15.4318 14.7561C15.4683 13.7608 15.4044 12.7381 15.5687 11.761C15.8883 9.91651 17.2672 8.82077 19.1391 8.75685C19.8604 8.72945 20.5727 8.74772 21.294 8.74772C21.6684 8.74772 21.8328 8.91208 21.8419 9.29559C21.851 9.92565 21.851 10.5466 21.8419 11.1766C21.8328 11.5601 21.6775 11.7062 21.294 11.7154C20.8009 11.7336 20.317 11.7154 19.8239 11.7519C19.0934 11.8067 18.6916 12.2176 18.6642 12.939C18.6368 13.7151 18.6551 14.4821 18.6551 15.3131C18.7829 15.3131 18.9016 15.3131 19.0203 15.3131C19.7874 15.3131 20.5453 15.3131 21.3123 15.3131C21.8054 15.3313 21.9789 15.5322 21.9241 16.007Z" fill="#422F87"/>
</svg>
