<svg width="36" height="35" viewBox="0 0 36 35" fill="none" xmlns="http://www.w3.org/2000/svg">
<path d="M17.75 0C8.08473 0 0.25 7.83473 0.25 17.5C0.25 27.1653 8.08473 35 17.75 35C27.4153 35 35.25 27.1653 35.25 17.5C35.25 7.83473 27.4153 0 17.75 0ZM13.3201 25.4903C13.3201 26.0212 13.1096 26.2317 12.5696 26.2317C11.819 26.2317 11.0594 26.2317 10.3088 26.2317C9.8329 26.2317 9.61323 26.0212 9.61323 25.5361C9.61323 23.7971 9.61323 22.0581 9.61323 20.3282C9.61323 18.6349 9.61323 16.9417 9.61323 15.2576C9.61323 14.6444 9.79629 14.4613 10.4095 14.4613C11.1326 14.4613 11.8465 14.4613 12.5696 14.4613C13.1096 14.4613 13.3201 14.6718 13.3201 15.2027C13.3201 18.6349 13.3201 22.0672 13.3201 25.4903ZM11.4621 13.4637C10.1441 13.4637 9.06407 12.3928 9.06407 11.0656C9.06407 9.73849 10.1349 8.66763 11.4529 8.66763C12.7709 8.66763 13.8601 9.7568 13.8601 11.0656C13.8601 12.3836 12.7801 13.4637 11.4621 13.4637ZM26.5183 25.5361C26.5183 26.0578 26.3353 26.2317 25.8135 26.2317C25.0173 26.2317 24.2118 26.2317 23.4155 26.2317C22.903 26.2317 22.7199 26.0486 22.7199 25.5269C22.7199 23.8245 22.7382 22.1221 22.7108 20.4197C22.7016 19.8614 22.6467 19.3031 22.5094 18.7631C22.3355 18.0675 21.8596 17.619 21.1182 17.5183C20.3036 17.4085 19.6263 17.6464 19.1778 18.3787C18.8392 18.937 18.6927 19.5594 18.6927 20.2092C18.6836 21.9665 18.6927 23.733 18.6927 25.4903C18.6927 26.0761 18.528 26.2409 17.9331 26.2409C17.1825 26.2409 16.4229 26.2409 15.6723 26.2409C15.1781 26.2409 14.9859 26.0486 14.9859 25.5544C14.9859 22.0855 14.9859 18.6258 14.9859 15.1569C14.9859 14.6627 15.1781 14.4705 15.6723 14.4613C16.4595 14.4521 17.2466 14.4521 18.0429 14.4613C18.528 14.4613 18.711 14.6444 18.7202 15.1203C18.7293 15.3491 18.7202 15.5688 18.7202 15.8708C20.1297 14.3332 22.1342 13.8572 24.0013 14.5711C25.3651 15.0928 26.0241 16.1912 26.2986 17.5549C26.4359 18.2688 26.5092 19.001 26.5183 19.7333C26.5366 21.6736 26.5183 23.6049 26.5183 25.5361Z" fill="#422F87"/>
</svg>
