<svg width="36" height="35" viewBox="0 0 36 35" fill="none" xmlns="http://www.w3.org/2000/svg">
<path d="M17.5839 0C7.94133 0 0.125 7.81633 0.125 17.4589C0.125 27.1015 7.94133 34.9178 17.5839 34.9178C27.2265 34.9178 35.0428 27.1015 35.0428 17.4589C35.0428 7.81633 27.2265 0 17.5839 0ZM26.3042 12.2724C25.9116 12.7289 25.5372 13.2129 25.0989 13.6147C24.7611 13.9251 24.6606 14.2538 24.6332 14.683C24.3228 19.0203 22.323 22.2711 18.2596 23.9877C15.2646 25.2478 12.2421 25.0287 9.33841 23.522C9.13752 23.4216 8.82706 23.3577 8.90924 23.0381C8.99142 22.7185 9.29275 22.8189 9.52103 22.8189C10.9364 22.8098 12.2421 22.4537 13.484 21.6501C13.3105 21.5954 13.1918 21.5588 13.0731 21.5223C11.886 21.1571 11.0642 20.3992 10.5985 19.2395C10.4524 18.8651 10.5346 18.7647 10.9364 18.8195C11.0551 18.8377 11.1829 18.8377 11.3016 18.8469C10.2607 18.1894 9.58495 17.3128 9.33841 16.1258C9.30189 15.934 9.28362 15.7422 9.27449 15.5505C9.25623 15.1761 9.34754 15.1122 9.6854 15.2674C9.87715 15.3496 10.078 15.4318 10.3246 15.45C10.2515 15.3587 10.1785 15.2674 10.1054 15.1761C9.17405 13.8977 9.03708 12.5463 9.71279 11.1218C9.88628 10.7566 9.98673 10.7566 10.2424 11.0579C11.8952 12.9846 13.9679 14.126 16.479 14.5004C16.5703 14.5095 16.6617 14.5187 16.753 14.5369C17.0269 14.5917 17.1091 14.4821 17.0908 14.1991C17.0178 12.9755 17.4104 11.9254 18.3418 11.1127C19.6932 9.92565 21.7569 9.87086 23.1631 10.994C23.4553 11.2314 23.7292 11.3045 24.0671 11.1584C24.551 10.9575 25.0259 10.7383 25.5098 10.5466C25.6103 10.5009 25.7381 10.5192 25.8568 10.51C25.8568 10.6287 25.8933 10.7566 25.8568 10.857C25.7564 11.1127 25.6377 11.3592 25.5007 11.5875C25.3637 11.8158 25.1811 12.0258 24.9619 12.3089C25.3637 12.1719 25.6833 12.0441 26.0212 11.9436C26.1216 11.9163 26.2403 11.9619 26.359 11.971C26.3408 12.0715 26.359 12.2085 26.3042 12.2724Z" fill="#422F87"/>
</svg>
